<mxfile host="app.diagrams.net" agent="Mozilla/5.0 (Windows NT 10.0; Win64; x64) AppleWebKit/537.36 (KHTML, like Gecko) Chrome/138.0.0.0 Safari/537.36 Edg/138.0.0.0" version="28.0.7">
  <diagram id="Ht1M8jgEwFfnCIfOTk4-" name="Page-1">
    <mxGraphModel dx="1445" dy="1600" grid="1" gridSize="10" guides="1" tooltips="1" connect="1" arrows="1" fold="1" page="1" pageScale="1" pageWidth="1169" pageHeight="827" math="0" shadow="0">
      <root>
        <mxCell id="0" />
        <mxCell id="1" parent="0" />
        <mxCell id="50putUnbAe--3iAj365U-2" value="" style="sketch=0;verticalLabelPosition=bottom;sketch=0;aspect=fixed;html=1;verticalAlign=top;strokeColor=none;fillColor=#000000;align=center;outlineConnect=0;pointerEvents=1;shape=mxgraph.citrix2.wifi_router;" vertex="1" parent="1">
          <mxGeometry x="50" y="-490" width="66.87" height="67" as="geometry" />
        </mxCell>
        <mxCell id="50putUnbAe--3iAj365U-9" value="" style="verticalLabelPosition=bottom;sketch=0;aspect=fixed;html=1;verticalAlign=top;strokeColor=none;align=center;outlineConnect=0;shape=mxgraph.citrix.laptop_1;" vertex="1" parent="1">
          <mxGeometry x="238" y="-540" width="91" height="77" as="geometry" />
        </mxCell>
        <mxCell id="50putUnbAe--3iAj365U-10" value="" style="verticalLabelPosition=bottom;sketch=0;aspect=fixed;html=1;verticalAlign=top;strokeColor=none;align=center;outlineConnect=0;shape=mxgraph.citrix.laptop_2;" vertex="1" parent="1">
          <mxGeometry x="232" y="-410" width="116" height="86.5" as="geometry" />
        </mxCell>
        <mxCell id="50putUnbAe--3iAj365U-14" value="" style="shape=image;html=1;verticalAlign=top;verticalLabelPosition=bottom;labelBackgroundColor=#ffffff;imageAspect=0;aspect=fixed;image=https://icons.diagrams.net/icon-cache1/WHCompare_Isometric_Web_Hosting___Servers-2190/web-browser-on-laptop-609.svg" vertex="1" parent="1">
          <mxGeometry x="238" y="-670" width="110" height="110" as="geometry" />
        </mxCell>
        <mxCell id="50putUnbAe--3iAj365U-15" value="&lt;b&gt;Company Laptop&lt;/b&gt;" style="text;strokeColor=none;align=center;fillColor=none;html=1;verticalAlign=middle;whiteSpace=wrap;rounded=0;" vertex="1" parent="1">
          <mxGeometry x="340" y="-620" width="130" height="30" as="geometry" />
        </mxCell>
        <mxCell id="50putUnbAe--3iAj365U-17" value="&lt;font style=&quot;color: light-dark(rgb(0, 0, 0), rgb(0, 198, 194)); font-size: 10px;&quot;&gt;Corporate VPN&lt;/font&gt;" style="text;strokeColor=none;align=center;fillColor=none;html=1;verticalAlign=middle;whiteSpace=wrap;rounded=0;" vertex="1" parent="1">
          <mxGeometry x="348" y="-600" width="110" height="30" as="geometry" />
        </mxCell>
        <mxCell id="50putUnbAe--3iAj365U-18" value="&lt;b&gt;Client Laptop&lt;/b&gt;" style="text;strokeColor=none;align=center;fillColor=none;html=1;verticalAlign=middle;whiteSpace=wrap;rounded=0;" vertex="1" parent="1">
          <mxGeometry x="348" y="-526.5" width="130" height="30" as="geometry" />
        </mxCell>
        <mxCell id="50putUnbAe--3iAj365U-19" value="&lt;font style=&quot;color: light-dark(rgb(0, 0, 0), rgb(0, 198, 194)); font-size: 10px;&quot;&gt;Client VPN&lt;/font&gt;" style="text;strokeColor=none;align=center;fillColor=none;html=1;verticalAlign=middle;whiteSpace=wrap;rounded=0;" vertex="1" parent="1">
          <mxGeometry x="356" y="-506.5" width="110" height="30" as="geometry" />
        </mxCell>
        <mxCell id="50putUnbAe--3iAj365U-20" value="&lt;b&gt;Personal Laptop&lt;/b&gt;" style="text;strokeColor=none;align=center;fillColor=none;html=1;verticalAlign=middle;whiteSpace=wrap;rounded=0;" vertex="1" parent="1">
          <mxGeometry x="356" y="-391.75" width="130" height="30" as="geometry" />
        </mxCell>
        <mxCell id="50putUnbAe--3iAj365U-21" value="&lt;font style=&quot;color: light-dark(rgb(0, 0, 0), rgb(0, 198, 194)); font-size: 10px;&quot;&gt;No VPN&lt;/font&gt;" style="text;strokeColor=none;align=center;fillColor=none;html=1;verticalAlign=middle;whiteSpace=wrap;rounded=0;" vertex="1" parent="1">
          <mxGeometry x="364" y="-371.75" width="110" height="30" as="geometry" />
        </mxCell>
        <mxCell id="50putUnbAe--3iAj365U-22" value="" style="shape=image;html=1;verticalAlign=top;verticalLabelPosition=bottom;labelBackgroundColor=#ffffff;imageAspect=0;aspect=fixed;image=https://icons.diagrams.net/icon-cache1/WHCompare_Isometric_Web_Hosting___Servers-2190/laptop-with-code-591.svg" vertex="1" parent="1">
          <mxGeometry x="246" y="-300" width="110" height="110" as="geometry" />
        </mxCell>
        <mxCell id="50putUnbAe--3iAj365U-23" value="&lt;b&gt;Personal Laptop&lt;/b&gt;" style="text;strokeColor=none;align=center;fillColor=none;html=1;verticalAlign=middle;whiteSpace=wrap;rounded=0;" vertex="1" parent="1">
          <mxGeometry x="354" y="-280" width="130" height="30" as="geometry" />
        </mxCell>
        <mxCell id="50putUnbAe--3iAj365U-24" value="&lt;font style=&quot;color: light-dark(rgb(0, 0, 0), rgb(0, 198, 194)); font-size: 10px;&quot;&gt;Client VPN&lt;/font&gt;" style="text;strokeColor=none;align=center;fillColor=none;html=1;verticalAlign=middle;whiteSpace=wrap;rounded=0;" vertex="1" parent="1">
          <mxGeometry x="360" y="-260" width="110" height="30" as="geometry" />
        </mxCell>
        <mxCell id="50putUnbAe--3iAj365U-32" value="" style="outlineConnect=0;dashed=0;verticalLabelPosition=bottom;verticalAlign=top;align=center;html=1;shape=mxgraph.aws3.internet_3;fillColor=light-dark(#D2D3D3,#E2EBEF);gradientColor=none;rotation=2;strokeColor=light-dark(#FFFFFF,#01C2BE);" vertex="1" parent="1">
          <mxGeometry x="620" y="-476.5" width="110" height="74" as="geometry" />
        </mxCell>
        <mxCell id="50putUnbAe--3iAj365U-35" value="" style="endArrow=classic;html=1;rounded=0;" edge="1" parent="1">
          <mxGeometry width="50" height="50" relative="1" as="geometry">
            <mxPoint x="470" y="-580" as="sourcePoint" />
            <mxPoint x="610" y="-450" as="targetPoint" />
          </mxGeometry>
        </mxCell>
        <mxCell id="50putUnbAe--3iAj365U-36" value="" style="html=1;labelBackgroundColor=#ffffff;startArrow=none;startFill=0;startSize=6;endArrow=classic;endFill=1;endSize=6;jettySize=auto;orthogonalLoop=1;strokeWidth=1;dashed=1;fontSize=14;rounded=0;entryX=0.009;entryY=0.867;entryDx=0;entryDy=0;entryPerimeter=0;" edge="1" parent="1" target="50putUnbAe--3iAj365U-14">
          <mxGeometry width="60" height="60" relative="1" as="geometry">
            <mxPoint x="110" y="-452.46000000000004" as="sourcePoint" />
            <mxPoint x="530" y="-412.46000000000004" as="targetPoint" />
          </mxGeometry>
        </mxCell>
        <mxCell id="50putUnbAe--3iAj365U-37" value="&lt;font style=&quot;font-size: 18px;&quot;&gt;&lt;b&gt;Current State: Remote Worker Environment&lt;/b&gt;&lt;/font&gt;" style="text;whiteSpace=wrap;html=1;" vertex="1" parent="1">
          <mxGeometry x="170" y="-780" width="490" height="40" as="geometry" />
        </mxCell>
        <mxCell id="50putUnbAe--3iAj365U-38" value="Multiple Device Types with Varying VPN Protection Levels" style="text;whiteSpace=wrap;html=1;" vertex="1" parent="1">
          <mxGeometry x="170" y="-740" width="340" height="40" as="geometry" />
        </mxCell>
      </root>
    </mxGraphModel>
  </diagram>
</mxfile>
